<?xml version="1.0" encoding="UTF-8"?>
<svg width="9px" height="85px" viewBox="0 0 9 85" version="1.1" xmlns="http://www.w3.org/2000/svg" xmlns:xlink="http://www.w3.org/1999/xlink">
    <title>Path</title>
    <g id="Niffler" stroke="none" stroke-width="1" fill="none" fill-rule="evenodd">
        <g id="View-Group" transform="translate(-354.000000, -391.000000)" fill="#000000" fill-rule="nonzero">
            <g id="Group" transform="translate(233.000000, 377.000000)">
                <path d="M123.583403,14.494186 C123.583403,14.494186 124.078461,13.3822674 125.233595,14.494186 C126.388729,15.6061047 124.80537,43.4515116 125.795485,44.1927907 C126.785601,44.9340698 125.735088,51.7436446 126.065127,54.1528016 C126.395165,56.5619586 125.398614,64.5305233 126.883787,64.9011628 C128.36896,65.2718023 130.019152,66.1984012 128.864017,69.9047965 C127.708883,73.6111919 127.543864,75.6497093 127.543864,77.1322674 C127.543864,78.6148256 127.543864,82.1359012 127.543864,83.0625 C127.543864,83.9890988 125.786739,86.7688953 126.417773,88.9927326 C127.048806,91.2165698 126.553749,93.6257267 127.873902,94.9229651 C129.194056,96.2202035 128.427047,99 126.417773,99 C124.408499,99 121.603173,98.8146802 121.768192,97.1468023 C121.933211,95.4789244 122.923326,92.5138081 122.923326,89.3633721 C122.923326,86.212936 123.913441,81.2093023 123.253365,76.9469477 C122.593288,72.684593 121.108115,68.0515988 122.593288,65.2718023 C124.078461,62.4920058 122.923326,59.15625 123.088345,55.4498547 C123.253365,51.7434593 122.923326,47.4811047 123.253365,43.5893895 C123.583403,39.6976744 123.088345,16.3473837 123.583403,14.494186 Z" id="Path" transform="translate(125.506698, 56.500000) rotate(360.000000) translate(-125.506698, -56.500000) "></path>
            </g>
        </g>
    </g>
</svg>